<?xml version="1.0" encoding="utf-8"?>
<svg xmlns="http://www.w3.org/2000/svg" height="512pt" version="1.1" viewBox="0 0 512 512" width="512pt">
<path d="M 0.00 0.00 L 512.00 0.00 L 512.00 512.00 L 0.00 512.00 L 0.00 0.00 Z" fill="transparent" opacity="1.00" stroke="transparent" stroke-width="0.25"/>
<path d="M 220.17 51.31 C 246.97 36.80 282.56 40.32 305.55 60.48 C 315.05 68.37 322.35 78.81 326.78 90.32 C 340.25 90.22 351.71 102.78 351.60 116.02 C 352.38 127.48 344.99 138.86 334.26 142.88 C 331.73 143.79 328.99 143.87 326.40 144.53 C 319.12 163.23 304.09 178.90 285.33 186.25 C 282.19 188.06 275.91 187.50 276.44 192.55 C 284.61 192.74 292.79 192.42 300.96 192.72 C 310.69 193.18 320.47 198.95 324.00 208.29 C 326.37 205.13 329.72 202.18 333.97 202.58 C 341.05 202.80 346.10 210.31 344.66 217.05 C 358.10 219.69 370.17 228.02 377.54 239.54 C 382.20 246.19 384.84 253.97 386.54 261.84 C 390.14 260.91 395.14 259.48 397.27 263.66 C 405.28 279.57 409.92 297.01 413.13 314.48 C 414.03 320.32 415.23 326.16 415.30 332.08 C 414.79 337.18 408.75 337.20 405.07 338.81 C 411.78 341.70 416.82 347.87 418.49 354.95 C 420.27 361.62 418.94 368.86 415.61 374.83 C 410.85 382.91 401.49 388.03 392.11 387.61 C 389.71 387.56 387.86 385.96 386.30 384.34 C 386.24 382.03 386.84 379.84 387.88 377.80 C 392.71 375.32 398.94 376.10 402.98 372.04 C 408.60 367.33 409.43 358.40 405.30 352.47 C 402.33 350.00 399.06 347.36 394.97 347.49 C 386.69 346.83 379.03 353.72 378.09 361.84 C 376.92 366.10 379.67 370.86 377.20 374.81 C 374.70 378.12 368.67 377.36 367.64 373.13 C 364.64 363.83 366.78 352.72 373.83 345.76 C 371.74 345.54 369.73 344.99 367.86 344.05 C 364.26 334.33 362.51 324.08 360.73 313.91 C 358.77 300.98 357.18 287.90 357.63 274.79 C 359.24 270.05 364.32 268.43 368.61 267.00 C 368.12 252.88 358.82 238.91 344.76 235.32 C 344.72 240.67 341.19 245.79 335.98 247.25 C 331.32 248.41 325.95 246.18 323.94 241.71 C 323.87 243.91 323.59 246.10 323.10 248.25 C 320.92 257.43 318.72 266.61 315.81 275.59 C 314.30 282.22 315.89 289.13 314.78 295.81 C 313.52 301.81 310.49 307.70 305.29 311.18 C 305.69 315.21 307.38 318.94 308.25 322.87 C 311.36 334.43 312.71 346.36 313.62 358.26 C 317.31 357.81 321.37 357.12 324.73 359.19 C 328.03 360.78 328.83 364.71 329.98 367.84 C 335.40 386.06 337.53 405.11 337.97 424.07 C 338.01 427.50 338.67 431.58 335.92 434.20 C 344.82 440.30 352.61 449.74 352.66 461.03 C 353.14 464.53 350.98 468.85 346.98 468.64 C 324.02 468.81 301.05 468.63 278.10 469.04 C 273.84 470.06 268.36 466.79 269.50 461.94 C 270.84 452.88 275.20 444.33 281.48 437.69 C 278.76 437.66 275.49 436.30 275.49 433.14 C 274.20 411.33 274.83 389.28 278.87 367.75 C 279.28 364.30 281.55 361.29 284.68 359.82 C 287.53 358.70 290.67 358.90 293.68 358.76 C 293.58 345.39 291.51 332.08 287.68 319.28 C 266.79 320.99 245.72 321.28 224.84 319.18 C 221.00 332.05 218.65 345.34 218.53 358.79 C 222.31 359.03 226.58 358.51 229.80 360.95 C 232.85 362.84 233.50 366.64 234.05 369.89 C 236.69 386.45 237.97 403.25 237.47 420.03 C 237.28 425.13 237.68 430.31 236.51 435.33 C 235.73 435.97 234.96 436.61 234.20 437.26 C 233.40 437.34 231.80 437.49 230.99 437.56 C 237.04 444.43 241.73 452.76 242.81 461.97 C 243.22 463.94 242.27 465.77 241.52 467.53 C 238.33 469.46 234.57 469.12 231.02 468.89 C 209.32 468.82 187.63 468.59 165.93 468.60 C 162.37 468.92 159.34 465.47 159.69 461.99 C 159.41 450.28 167.31 440.15 176.74 434.04 C 176.21 433.53 175.16 432.51 174.63 432.00 C 174.03 418.96 175.19 405.92 177.02 393.02 C 178.76 382.72 180.35 372.17 184.64 362.57 C 187.21 357.42 193.68 357.23 198.60 358.27 C 200.24 342.58 202.13 326.78 207.30 311.78 C 203.82 308.51 200.36 304.92 198.79 300.32 C 195.75 292.91 198.10 284.75 196.92 277.06 C 193.55 265.51 190.20 253.90 188.13 242.03 C 185.81 247.57 178.44 249.00 173.58 246.04 C 169.74 243.91 167.44 239.69 167.46 235.33 C 160.22 237.48 153.72 241.96 149.71 248.44 C 146.08 253.98 144.36 260.50 143.59 267.01 C 147.35 268.26 151.63 269.53 153.94 273.01 C 155.14 275.81 154.74 278.99 154.82 281.97 C 154.34 299.86 151.74 317.68 147.33 335.02 C 146.57 337.91 145.97 340.91 144.56 343.58 C 143.29 345.89 140.45 345.45 138.23 345.69 C 145.98 352.65 147.97 364.74 144.37 374.27 C 142.30 378.80 134.48 376.99 134.36 372.08 C 134.32 366.89 135.36 361.32 132.62 356.57 C 128.76 348.22 116.85 344.24 109.46 350.39 C 101.96 355.85 103.31 368.39 110.80 373.24 C 115.29 376.65 122.45 374.69 125.82 379.83 C 126.21 382.82 125.76 386.43 122.30 387.25 C 108.05 389.69 93.51 377.49 93.28 363.05 C 92.31 353.10 97.87 342.60 107.32 338.83 C 103.98 337.29 98.49 337.41 97.34 333.16 C 96.85 327.79 98.17 322.46 98.80 317.16 C 101.86 299.01 106.76 281.05 114.64 264.38 C 115.87 262.98 116.95 261.21 118.89 260.74 C 121.21 260.71 123.44 261.40 125.71 261.80 C 128.47 247.91 135.71 234.80 147.13 226.21 C 153.08 221.56 160.23 218.69 167.56 217.09 C 166.48 211.35 169.53 204.97 175.27 203.17 C 180.16 201.29 185.58 203.91 188.12 208.27 C 192.06 199.67 200.54 193.61 209.98 192.82 C 218.51 192.35 227.07 192.73 235.62 192.60 C 235.54 191.70 235.39 189.92 235.31 189.03 C 213.10 183.21 194.02 166.08 186.05 144.54 C 179.48 143.89 173.07 141.31 168.42 136.54 C 160.34 128.71 158.55 115.79 162.86 105.61 C 166.80 96.96 175.67 90.13 185.43 90.44 C 186.52 87.90 187.63 85.36 188.74 82.83 C 195.87 69.57 206.78 58.28 220.17 51.31 Z" fill="#032a48" opacity="1.00" stroke="#032a48" stroke-width="0.25"/>
<path d="M 248.61 52.93 C 263.89 51.26 279.78 54.84 292.63 63.35 C 305.96 71.99 315.92 85.74 319.77 101.18 C 323.58 116.50 321.68 133.27 314.20 147.21 C 307.10 160.94 294.89 172.02 280.41 177.51 C 265.75 183.35 248.92 183.69 234.06 178.36 C 217.63 172.80 203.79 160.13 196.63 144.36 C 190.63 131.58 189.17 116.78 192.19 103.01 C 195.96 86.08 206.74 70.60 221.90 61.97 C 229.92 56.85 239.25 54.23 248.61 52.93 Z" fill="#96ebff" opacity="1.00" stroke="#96ebff" stroke-width="0.25"/>
<path d="M 221.23 72.34 C 221.28 69.99 223.14 68.84 225.15 68.07 C 225.85 69.12 226.57 70.18 227.28 71.23 C 226.70 72.25 226.13 73.27 225.57 74.30 C 225.04 74.29 223.98 74.29 223.45 74.29 C 222.70 73.63 221.97 72.99 221.23 72.34 Z" fill="#f1ffff" opacity="1.00" stroke="#f1ffff" stroke-width="0.25"/>
<path d="M 211.48 78.06 C 211.23 74.99 214.34 73.15 217.09 73.37 C 219.07 74.17 218.92 76.59 218.36 78.29 C 217.30 81.39 212.09 81.54 211.48 78.06 Z" fill="#fbfdff" opacity="1.00" stroke="#fbfdff" stroke-width="0.25"/>
<path d="M 219.19 79.17 C 220.55 78.53 222.00 78.24 223.53 78.30 C 223.62 80.09 223.67 81.88 223.69 83.68 C 221.64 83.62 218.05 83.96 218.42 80.82 C 218.61 80.41 219.00 79.59 219.19 79.17 Z" fill="#f8ffff" opacity="1.00" stroke="#f8ffff" stroke-width="0.25"/>
<path d="M 224.21 93.41 C 244.10 92.75 264.06 93.31 283.99 93.13 C 291.77 92.74 299.00 97.81 302.31 104.68 C 304.74 109.91 304.17 115.85 303.98 121.44 C 303.76 131.74 294.19 140.61 283.94 140.34 C 265.28 140.41 246.61 140.39 227.95 140.31 C 221.16 140.16 214.52 136.57 210.98 130.71 C 207.06 125.31 207.75 118.29 207.84 111.99 C 208.07 102.97 215.40 94.94 224.21 93.41 Z" fill="#032b47" opacity="1.00" stroke="#032b47" stroke-width="0.25"/>
<path d="M 173.15 108.18 C 175.25 104.90 178.33 101.74 182.38 101.23 C 179.66 111.79 179.89 123.04 182.35 133.63 C 172.03 130.53 167.81 117.15 173.15 108.18 Z" fill="#95ebfe" opacity="1.00" stroke="#95ebfe" stroke-width="0.25"/>
<path d="M 330.19 101.05 C 339.64 103.64 343.95 115.39 340.02 123.96 C 338.42 128.49 334.57 131.78 330.21 133.58 C 332.13 122.83 332.29 111.79 330.19 101.05 Z" fill="#96eafe" opacity="1.00" stroke="#96eafe" stroke-width="0.25"/>
<path d="M 232.45 109.55 C 236.24 108.63 239.99 109.67 242.40 112.80 C 243.73 117.04 242.26 123.26 237.09 123.72 C 232.18 124.92 227.41 119.94 228.52 115.09 C 228.73 112.62 230.81 111.12 232.45 109.55 Z" fill="#f9ffff" opacity="1.00" stroke="#f9ffff" stroke-width="0.25"/>
<path d="M 272.34 111.17 C 275.49 107.95 280.81 108.94 283.52 112.23 C 285.02 115.49 284.96 119.71 281.98 122.12 C 279.54 124.83 275.43 123.96 272.59 122.39 C 269.84 119.33 269.01 114.13 272.34 111.17 Z" fill="#f8ffff" opacity="1.00" stroke="#f8ffff" stroke-width="0.25"/>
<path d="M 233.24 114.76 C 234.20 114.34 235.15 113.91 236.11 113.48 C 237.71 114.57 238.80 116.04 238.34 118.05 C 237.52 118.48 236.72 118.92 235.91 119.36 C 235.01 119.00 234.11 118.65 233.22 118.29 C 233.21 117.11 233.22 115.93 233.24 114.76 Z" fill="#012034" opacity="1.00" stroke="#012034" stroke-width="0.25"/>
<path d="M 274.70 116.87 C 274.11 114.43 277.63 112.52 279.33 114.50 C 281.15 115.76 279.52 117.76 279.23 119.38 C 277.62 119.10 274.60 119.17 274.70 116.87 Z" fill="#0c223d" opacity="1.00" stroke="#0c223d" stroke-width="0.25"/>
<path d="M 241.33 152.27 C 241.50 150.29 243.85 150.21 245.19 149.38 C 246.30 150.43 248.32 151.17 248.19 153.01 C 248.23 158.00 248.37 163.01 248.08 167.99 C 247.21 171.16 243.84 170.70 241.56 169.35 C 241.03 163.68 241.12 157.95 241.33 152.27 Z" fill="#002a46" opacity="1.00" stroke="#002a46" stroke-width="0.25"/>
<path d="M 252.50 152.92 C 252.20 150.79 254.72 150.27 256.05 149.32 C 257.24 150.33 259.67 150.94 259.39 152.95 C 259.41 158.04 259.55 163.15 259.31 168.23 C 258.49 171.38 253.24 171.32 252.57 168.08 C 252.28 163.04 252.49 157.97 252.50 152.92 Z" fill="#062f4c" opacity="1.00" stroke="#062f4c" stroke-width="0.25"/>
<path d="M 263.72 152.99 C 263.54 151.03 265.62 150.28 266.89 149.33 C 268.36 150.21 270.91 150.70 270.67 152.94 C 270.72 157.93 270.85 162.94 270.57 167.92 C 270.44 170.28 267.49 170.32 265.78 170.76 C 265.10 169.53 263.65 168.55 263.74 167.02 C 263.64 162.34 263.64 157.66 263.72 152.99 Z" fill="#042949" opacity="1.00" stroke="#042949" stroke-width="0.25"/>
<path d="M 200.69 207.68 C 204.94 203.43 211.26 202.98 216.94 202.89 C 242.97 202.92 269.00 202.89 295.03 202.90 C 300.75 203.05 307.22 203.21 311.56 207.50 C 314.88 211.11 316.63 216.07 316.66 220.94 C 316.86 229.05 315.11 237.04 313.47 244.94 C 311.50 254.47 308.72 263.79 306.02 273.14 C 305.05 276.13 304.86 279.28 304.81 282.41 C 272.36 282.45 239.91 282.41 207.46 282.43 C 207.43 279.92 207.46 277.37 206.73 274.95 C 202.34 259.20 197.55 243.42 195.85 227.09 C 195.04 220.38 195.96 212.86 200.69 207.68 Z" fill="#96ebff" opacity="1.00" stroke="#96ebff" stroke-width="0.25"/>
<path d="M 209.31 207.34 C 210.67 206.94 212.03 206.54 213.40 206.14 C 213.83 207.52 214.27 208.91 214.71 210.29 C 215.91 210.84 217.11 211.39 218.31 211.94 C 218.39 212.76 218.56 214.39 218.65 215.21 C 216.67 217.70 214.73 220.33 211.90 221.93 C 210.18 220.60 209.06 218.85 209.22 216.63 C 210.86 215.37 212.50 213.95 212.82 211.79 C 211.69 211.30 210.57 210.81 209.45 210.32 C 209.40 209.33 209.35 208.33 209.31 207.34 Z" fill="#feffff" opacity="1.00" stroke="#feffff" stroke-width="0.25"/>
<path d="M 203.23 212.61 C 204.76 212.45 206.29 212.30 207.83 212.15 C 208.11 213.92 208.94 216.14 207.02 217.32 C 204.22 218.02 203.07 214.86 203.23 212.61 Z" fill="#f8ffff" opacity="1.00" stroke="#f8ffff" stroke-width="0.25"/>
<path d="M 248.45 215.45 C 259.96 211.72 273.29 217.27 279.24 227.67 C 283.57 235.35 284.00 245.14 280.23 253.13 C 275.36 263.98 262.54 270.56 250.90 267.92 C 238.45 265.73 228.95 253.56 229.41 240.99 C 229.28 229.48 237.54 218.76 248.45 215.45 Z" fill="#032b48" opacity="1.00" stroke="#032b48" stroke-width="0.25"/>
<path d="M 249.93 225.54 C 257.84 222.48 268.34 226.26 270.99 234.61 C 268.16 232.36 265.76 229.54 262.61 227.72 C 259.06 225.75 254.89 226.68 251.10 227.17 C 252.44 227.77 253.79 228.37 255.14 228.97 C 255.28 231.03 255.41 233.08 255.55 235.14 C 253.75 235.49 251.96 235.86 250.19 236.30 C 250.41 237.26 250.84 239.19 251.05 240.16 C 250.56 239.95 249.57 239.53 249.07 239.33 C 248.92 237.27 248.87 235.21 248.45 233.19 C 247.18 232.71 245.91 232.31 244.62 231.92 C 244.39 232.51 243.93 233.68 243.70 234.26 C 242.42 237.70 240.09 241.28 241.36 245.09 C 243.50 252.28 251.30 257.88 258.87 256.57 C 264.23 255.71 268.13 251.22 270.35 246.55 C 271.51 242.69 270.74 238.58 270.99 234.61 L 271.03 233.26 C 273.37 238.80 273.49 245.54 270.28 250.76 C 267.07 255.39 261.77 258.70 256.01 258.39 C 247.27 258.54 239.26 250.81 239.48 241.99 C 238.92 234.89 243.55 228.32 249.93 225.54 Z" fill="#f4c332" opacity="1.00" stroke="#f4c332" stroke-width="0.25"/>
<path d="M 241.64 229.65 C 243.70 227.30 246.41 223.96 249.93 225.54 C 243.55 228.32 238.92 234.89 239.48 241.99 C 239.26 250.81 247.27 258.54 256.01 258.39 C 261.77 258.70 267.07 255.39 270.28 250.76 C 271.04 254.59 267.06 256.84 264.23 258.38 C 259.74 259.94 254.73 259.81 250.11 258.96 C 244.15 256.83 238.49 251.56 238.44 244.84 C 238.33 239.68 238.00 233.80 241.64 229.65 Z" fill="#012034" opacity="1.00" stroke="#012034" stroke-width="0.25"/>
<path d="M 251.10 227.17 C 254.89 226.68 259.06 225.75 262.61 227.72 C 265.76 229.54 268.16 232.36 270.99 234.61 C 270.74 238.58 271.51 242.69 270.35 246.55 C 268.13 251.22 264.23 255.71 258.87 256.57 C 251.30 257.88 243.50 252.28 241.36 245.09 C 240.09 241.28 242.42 237.70 243.70 234.26 C 243.63 236.07 243.49 237.88 243.37 239.69 C 244.67 239.98 245.98 240.24 247.30 240.45 C 249.33 238.60 248.30 235.59 248.45 233.19 C 248.87 235.21 248.92 237.27 249.07 239.33 C 249.57 239.53 250.56 239.95 251.05 240.16 C 252.64 240.10 254.22 239.94 255.80 239.79 C 255.72 238.24 255.64 236.69 255.55 235.14 C 255.41 233.08 255.28 231.03 255.14 228.97 C 253.79 228.37 252.44 227.77 251.10 227.17 Z" fill="#ffc218" opacity="1.00" stroke="#ffc218" stroke-width="0.25"/>
<path d="M 249.60 229.53 C 251.41 229.39 253.30 229.32 254.81 230.54 C 254.50 231.33 253.88 232.92 253.57 233.71 C 252.19 233.65 250.81 233.60 249.43 233.54 C 249.48 232.20 249.54 230.86 249.60 229.53 Z" fill="#ffffe6" opacity="1.00" stroke="#ffffe6" stroke-width="0.25"/>
<path d="M 244.62 231.92 C 245.91 232.31 247.18 232.71 248.45 233.19 C 248.30 235.59 249.33 238.60 247.30 240.45 C 245.98 240.24 244.67 239.98 243.37 239.69 C 243.49 237.88 243.63 236.07 243.70 234.26 C 243.93 233.68 244.39 232.51 244.62 231.92 Z" fill="#fffefa" opacity="1.00" stroke="#fffefa" stroke-width="0.25"/>
<path d="M 250.19 236.30 C 251.96 235.86 253.75 235.49 255.55 235.14 C 255.64 236.69 255.72 238.24 255.80 239.79 C 254.22 239.94 252.64 240.10 251.05 240.16 C 250.84 239.19 250.41 237.26 250.19 236.30 Z" fill="#fffff3" opacity="1.00" stroke="#fffff3" stroke-width="0.25"/>
<path d="M 107.36 328.04 C 110.33 308.74 114.80 289.54 122.52 271.55 C 129.93 273.46 137.21 275.84 144.63 277.70 C 144.25 297.23 141.17 316.64 136.79 335.64 C 127.14 332.55 117.20 330.47 107.36 328.04 Z" fill="#96ebff" opacity="1.00" stroke="#96ebff" stroke-width="0.25"/>
<path d="M 367.57 277.70 C 375.14 275.82 382.55 273.35 390.18 271.67 C 397.39 289.78 402.21 308.76 404.94 328.05 C 395.11 330.39 385.34 333.04 375.43 335.05 C 371.09 316.23 368.23 297.01 367.57 277.70 Z" fill="#96ebff" opacity="1.00" stroke="#96ebff" stroke-width="0.25"/>
<path d="M 207.28 287.22 C 239.83 287.20 272.39 287.16 304.94 287.25 C 304.94 291.87 304.76 296.95 301.70 300.71 C 297.02 306.59 289.26 308.77 282.05 309.24 C 270.39 309.95 258.70 310.49 247.01 310.08 C 239.34 309.59 231.58 309.87 223.99 308.43 C 218.34 307.28 212.92 304.27 209.66 299.42 C 207.37 295.79 207.26 291.37 207.28 287.22 Z" fill="#96ebff" opacity="1.00" stroke="#96ebff" stroke-width="0.25"/>
<path d="M 125.81 312.30 C 121.56 311.50 121.58 304.52 125.92 303.93 C 128.76 303.13 130.74 305.63 131.68 307.96 C 130.91 310.50 128.85 313.24 125.81 312.30 Z" fill="#022b48" opacity="1.00" stroke="#022b48" stroke-width="0.25"/>
<path d="M 382.37 304.73 C 385.02 302.58 389.73 304.47 389.55 308.03 C 390.22 312.20 383.66 314.00 381.65 310.55 C 380.82 308.75 380.83 306.09 382.37 304.73 Z" fill="#022d4b" opacity="1.00" stroke="#022d4b" stroke-width="0.25"/>
<path d="M 209.69 321.36 C 213.86 321.82 217.71 323.54 221.66 324.84 C 221.47 325.32 221.10 326.29 220.91 326.77 C 216.81 326.91 213.13 324.83 209.44 323.36 C 209.50 322.86 209.63 321.86 209.69 321.36 Z" fill="#e4885c" opacity="1.00" stroke="#e4885c" stroke-width="0.25"/>
<path d="M 294.11 324.58 C 297.92 323.44 301.81 322.51 305.79 322.28 C 305.68 323.00 305.45 324.44 305.33 325.16 C 301.77 326.18 298.10 326.69 294.52 327.63 C 294.38 326.61 294.24 325.59 294.11 324.58 Z" fill="#e57c40" opacity="1.00" stroke="#e57c40" stroke-width="0.25"/>
<path d="M 295.44 332.61 C 299.08 331.68 302.75 330.90 306.48 330.40 C 306.50 331.37 306.53 332.35 306.57 333.33 C 302.92 334.20 299.29 335.13 295.58 335.63 C 295.53 334.62 295.48 333.61 295.44 332.61 Z" fill="#dc7a46" opacity="1.00" stroke="#dc7a46" stroke-width="0.25"/>
<path d="M 207.53 333.53 C 207.54 332.54 207.55 331.56 207.57 330.58 C 210.97 330.70 214.83 330.11 217.59 332.56 C 217.79 332.65 218.21 332.81 218.41 332.89 C 217.82 333.26 216.65 333.99 216.06 334.36 C 213.20 334.23 210.36 333.90 207.53 333.53 Z" fill="#dc793e" opacity="1.00" stroke="#dc793e" stroke-width="0.25"/>
<path d="M 205.11 338.23 C 209.07 338.36 212.91 339.31 216.71 340.36 C 216.71 340.99 216.72 342.24 216.72 342.87 C 213.02 342.61 209.33 342.12 205.78 341.03 C 205.61 340.33 205.28 338.93 205.11 338.23 Z" fill="#e07a46" opacity="1.00" stroke="#e07a46" stroke-width="0.25"/>
<path d="M 203.18 348.33 C 203.26 347.40 203.35 346.47 203.44 345.55 C 207.02 346.73 211.03 346.81 214.31 348.77 C 214.41 349.32 214.60 350.41 214.70 350.96 C 210.73 350.77 206.91 349.61 203.18 348.33 Z" fill="#e78649" opacity="1.00" stroke="#e78649" stroke-width="0.25"/>
<path d="M 296.80 355.62 C 300.68 354.34 304.81 354.42 308.85 354.45 C 308.63 355.09 308.21 356.37 307.99 357.01 C 304.68 357.91 301.17 358.09 297.75 358.29 C 296.44 357.77 296.12 356.88 296.80 355.62 Z" fill="#e27a3f" opacity="1.00" stroke="#e27a3f" stroke-width="0.25"/>
<path d="M 193.00 368.20 C 203.24 368.48 213.46 369.08 223.70 369.35 C 226.88 388.58 227.46 408.11 227.16 427.57 C 212.99 427.26 198.84 426.65 184.68 426.31 C 185.46 406.73 187.31 387.04 193.00 368.20 Z" fill="#96ebff" opacity="1.00" stroke="#96ebff" stroke-width="0.25"/>
<path d="M 288.80 369.38 C 299.02 369.05 309.24 368.49 319.47 368.19 C 324.91 387.11 327.27 406.79 327.72 426.44 C 313.62 426.68 299.53 427.11 285.44 427.58 C 284.86 408.12 285.67 388.61 288.80 369.38 Z" fill="#96ebff" opacity="1.00" stroke="#96ebff" stroke-width="0.25"/>
<path d="M 170.08 457.69 C 177.24 439.54 201.40 431.53 218.31 440.72 C 225.06 444.35 229.53 451.20 231.96 458.30 C 211.33 457.93 190.69 458.46 170.08 457.69 Z" fill="#96ebff" opacity="1.00" stroke="#96ebff" stroke-width="0.25"/>
<path d="M 296.41 439.58 C 308.12 434.62 322.44 436.75 332.33 444.69 C 337.04 447.91 339.87 452.93 342.55 457.82 C 333.05 458.37 323.53 457.97 314.02 458.10 C 302.81 457.99 291.61 458.47 280.41 458.25 C 283.09 450.31 288.62 443.03 296.41 439.58 Z" fill="#96ebff" opacity="1.00" stroke="#96ebff" stroke-width="0.25"/>
</svg>